<?xml version="1.0" standalone="no"?>
<!DOCTYPE svg PUBLIC "-//W3C//DTD SVG 20010904//EN" "http://www.w3.org/TR/2001/REC-SVG-20010904/DTD/svg10.dtd">
<svg version="1.0" xmlns="http://www.w3.org/2000/svg" viewBox="0 0 500.000000 500.000000"
  preserveAspectRatio="xMidYMid meet">

  <g transform="translate(0.000000,500.000000) scale(0.100000,-0.100000)" stroke="none">
    <path d="M1687 3794 c-77 -14 -204 -60 -255 -91 -154 -94 -267 -198 -348 -320
-49 -74 -98 -188 -125 -289 -29 -112 -29 -365 0 -477 42 -162 139 -341 277
-512 73 -92 328 -348 464 -466 194 -170 460 -374 703 -539 133 -91 139 -94
162 -80 99 60 508 361 622 457 37 32 101 85 142 118 88 71 401 378 458 450
133 166 246 378 290 545 25 95 28 121 27 270 0 140 -3 179 -23 255 -65 252
-261 490 -496 605 -129 63 -226 84 -390 84 -123 1 -152 -3 -240 -27 -112 -31
-274 -112 -366 -183 l-59 -45 -57 44 c-115 87 -247 153 -378 189 -95 26 -303
32 -408 12z m395 -177 c78 -25 201 -86 228 -114 10 -10 2 -9 -26 5 -81 41
-284 77 -284 50 0 -5 7 -8 15 -5 8 4 17 2 20 -3 3 -5 -5 -12 -17 -16 l-23 -8
24 -5 c23 -6 23 -7 7 -24 -15 -14 -52 -22 -103 -20 -7 1 -13 -4 -13 -9 0 -5
-13 -7 -30 -3 -16 4 -30 3 -30 -2 0 -9 -23 -14 -72 -17 -14 0 -24 -3 -22 -5 3
-3 -19 -11 -48 -18 -47 -12 -79 -25 -223 -88 l-51 -22 -11 24 c-9 19 -9 25 3
30 8 3 14 10 14 16 0 5 -9 2 -20 -8 -14 -13 -17 -22 -10 -29 17 -17 12 -46 -7
-39 -9 4 -14 2 -10 -3 3 -6 -3 -15 -13 -22 -14 -9 -21 -9 -26 0 -4 6 -3 8 4 4
6 -3 13 -2 17 4 3 5 -1 10 -9 10 -16 0 -82 -83 -109 -135 -29 -59 -57 -169
-63 -249 -16 -222 105 -558 268 -741 38 -42 48 -60 48 -89 0 -20 -4 -36 -9
-36 -27 0 -249 283 -305 390 -70 135 -114 338 -101 478 26 301 177 532 431
660 116 59 184 71 354 67 99 -3 141 -8 202 -28z m1188 -4 c11 -4 7 -9 -15 -20
l-30 -14 27 4 c15 2 25 0 22 -4 -3 -5 -15 -9 -27 -10 -20 -1 -20 -2 3 -8 14
-5 33 -4 42 1 23 11 36 10 18 -2 -12 -8 -8 -10 15 -11 l30 -2 -35 -8 c-28 -6
-23 -7 24 -4 32 2 55 1 52 -2 -3 -3 26 -17 64 -29 142 -48 217 -107 300 -236
133 -205 127 -515 -14 -796 -48 -96 -140 -237 -190 -292 -47 -52 -56 -58 -56
-35 0 8 -10 34 -21 57 -19 38 -20 48 -10 109 6 37 11 80 11 94 0 16 23 61 54
108 29 45 63 100 74 122 23 47 68 243 57 253 -4 4 -16 -4 -27 -18 -11 -14 -25
-24 -29 -23 -5 2 -8 -1 -6 -6 2 -10 -53 -61 -67 -61 -6 0 -5 5 2 12 20 20 14
33 -7 14 -17 -15 -19 -15 -25 -1 -10 28 -7 37 13 30 11 -3 22 -1 26 5 3 5 2
10 -4 10 -6 0 -7 8 -4 17 6 16 -46 -26 -94 -76 l-23 -24 -124 125 c-135 138
-151 165 -144 252 5 57 25 92 74 125 54 37 157 21 184 -29 10 -19 12 -18 39
13 28 30 34 32 96 32 65 0 67 -1 106 -42 46 -50 51 -40 9 19 -57 79 -159 130
-260 131 -102 0 -164 -25 -236 -97 -78 -78 -98 -119 -124 -247 -41 -206 -94
-320 -216 -464 l-42 -50 24 -29 c42 -48 18 -42 -39 10 -29 27 -90 69 -135 94
-45 25 -82 48 -82 52 0 18 53 20 91 2 30 -13 45 -15 57 -8 21 13 86 199 108
307 19 93 15 187 -11 237 -20 40 -64 90 -79 90 -16 0 -146 62 -146 70 0 12 82
84 145 127 112 76 188 107 309 127 67 12 213 11 246 -1z m97 1 c-3 -3 -12 -4
-19 -1 -8 3 -5 6 6 6 11 1 17 -2 13 -5z m-1102 -239 c159 -30 393 -137 438
-199 30 -42 32 -108 8 -203 -23 -89 -54 -167 -69 -177 -20 -12 -103 87 -181
217 -71 118 -152 219 -165 206 -17 -17 98 -307 150 -382 19 -26 34 -51 34 -56
0 -5 -21 -27 -46 -49 l-45 -41 -2 -71 c-2 -65 -5 -74 -30 -96 -21 -18 -40 -24
-73 -24 -42 0 -50 4 -99 56 -59 60 -77 95 -54 103 8 2 29 19 47 37 56 56 39
118 -43 150 -83 31 -196 -4 -210 -66 -8 -37 16 -83 55 -107 16 -9 30 -21 30
-26 0 -20 -52 -95 -80 -116 -35 -25 -86 -37 -124 -27 -37 9 -58 56 -54 124 3
48 0 59 -18 72 -43 31 -84 69 -84 78 0 5 7 15 15 22 51 43 176 324 175 395 -1
32 -76 -57 -144 -171 -100 -166 -175 -244 -235 -244 -23 0 -40 44 -71 185 -33
150 -23 216 41 277 64 61 167 94 406 127 219 31 290 32 428 6z m896 -462 c81
-134 208 -212 299 -184 22 6 40 18 40 26 0 8 4 16 9 19 13 8 -6 -79 -28 -130
-23 -52 -37 -56 -46 -13 -4 17 -13 33 -20 35 -8 3 -52 -13 -100 -35 -85 -40
-139 -76 -202 -134 -29 -27 -34 -29 -64 -18 -17 6 -56 11 -85 11 -30 0 -54 2
-54 5 0 3 23 34 52 68 61 73 132 218 156 317 9 38 18 70 19 70 1 0 12 -17 24
-37z m-1028 -100 c13 -8 8 -31 -9 -37 -24 -9 -107 -7 -123 3 -22 14 -5 39 31
44 33 4 86 -1 101 -10z m1360 -39 c-3 -8 -9 -14 -15 -14 -5 0 -6 -5 -2 -12 5
-7 3 -8 -5 -3 -9 5 -10 10 -2 18 17 17 13 27 -6 21 -14 -5 -15 -4 -4 4 19 13
41 4 34 -14z m-1917 -127 c5 -5 -32 -77 -41 -77 -8 0 9 41 21 51 18 15 18 30
0 23 -8 -3 -16 -1 -20 4 -6 10 30 9 40 -1z m593 -205 c-5 -2 -7 -8 -3 -13 3
-5 2 -9 -3 -8 -18 3 -34 -1 -29 -9 2 -4 -21 -9 -53 -10 -46 -2 -62 1 -84 18
-15 12 -27 25 -27 30 0 5 21 30 47 57 l46 48 58 -55 c31 -30 53 -57 48 -58z
m394 91 c39 -20 127 -84 145 -106 12 -14 9 -18 -20 -30 -33 -14 -140 -94 -146
-109 -6 -15 -19 -8 -18 10 1 9 -3 17 -9 17 -20 0 -32 136 -19 204 7 35 21 38
67 14z m822 -104 c0 -160 -2 -162 -104 -89 -46 33 -90 60 -97 60 -23 0 -16 14
24 52 38 37 149 99 167 94 6 -2 10 -49 10 -117z m-1987 57 c7 -4 12 -17 10
-28 -2 -12 3 -23 10 -25 7 -3 10 1 6 11 -4 11 0 16 15 17 37 2 40 4 54 23 13
18 14 14 6 -35 -5 -29 -10 -71 -10 -91 -1 -21 -5 -35 -10 -32 -18 11 -119 154
-119 168 0 6 23 2 38 -8z m386 -94 c23 -25 69 -57 114 -80 72 -35 80 -37 171
-36 118 1 183 26 266 105 l55 52 0 -50 c0 -28 4 -73 10 -102 9 -46 7 -58 -23
-128 -29 -71 -32 -87 -31 -183 0 -97 3 -111 33 -179 30 -68 33 -83 35 -190 3
-151 35 -251 125 -390 15 -23 15 -24 -7 -12 -12 6 -50 33 -84 59 -35 26 -101
74 -148 106 -47 33 -119 87 -160 121 -41 34 -91 72 -110 85 -19 14 -78 63
-131 110 -52 47 -131 116 -176 154 -76 65 -81 72 -92 124 -23 116 -6 285 43
429 33 98 36 102 55 72 9 -13 34 -43 55 -67z m1339 -23 c74 -25 127 -61 189
-126 81 -87 117 -191 103 -300 l-6 -53 -42 25 c-64 37 -132 48 -187 31 -42
-13 -43 -14 -14 -15 76 -2 231 -82 248 -128 14 -35 -13 -36 -51 -3 -44 39
-142 85 -198 94 l-40 7 50 -30 c28 -16 64 -43 80 -61 l30 -32 -90 -85 c-49
-46 -137 -119 -194 -161 -57 -42 -129 -97 -160 -122 -31 -25 -72 -56 -92 -68
l-36 -22 -29 63 c-21 46 -28 78 -29 124 0 34 3 64 6 67 3 4 30 1 59 -5 78 -17
176 -7 241 24 54 26 148 101 139 110 -3 3 -30 -3 -60 -13 -70 -25 -178 -25
-246 -2 -60 21 -174 92 -174 109 0 13 36 40 102 78 50 29 44 31 -37 10 -62
-16 -104 -39 -168 -88 -29 -22 -41 -27 -50 -18 -8 8 -2 20 24 47 47 48 143 94
214 101 50 5 55 8 34 15 -37 14 -130 11 -170 -6 -36 -15 -37 -15 -43 7 -11 41
-6 163 9 213 30 101 171 210 302 234 71 13 218 2 286 -21z" />
    <path d="M1900 3560 c0 -5 5 -10 11 -10 5 0 7 5 4 10 -3 6 -8 10 -11 10 -2 0
-4 -4 -4 -10z" />
    <path d="M1943 3563 c9 -2 25 -2 35 0 9 3 1 5 -18 5 -19 0 -27 -2 -17 -5z" />
    <path d="M1560 3465 c-14 -8 -20 -14 -14 -15 5 0 19 7 30 15 24 18 16 19 -16
0z" />
    <path d="M1374 3325 c-10 -8 -14 -15 -8 -15 6 0 17 7 24 15 16 19 9 19 -16 0z" />
    <path d="M3170 3590 c-30 -6 -31 -8 -8 -9 14 0 35 -4 45 -7 13 -4 15 -3 4 4
-11 8 -11 10 0 15 19 7 2 6 -41 -3z" />
    <path d="M3060 3569 c-12 -8 -10 -9 9 -4 16 5 21 4 17 -4 -4 -6 0 -11 9 -11
20 0 15 24 -6 27 -8 2 -21 -2 -29 -8z" />
    <path d="M2976 3541 c-3 -5 0 -11 7 -14 8 -3 14 1 14 9 0 16 -13 19 -21 5z" />
    <path d="M3188 3523 c7 -3 16 -2 19 1 4 3 -2 6 -13 5 -11 0 -14 -3 -6 -6z" />
    <path d="M3148 3513 c7 -3 16 -2 19 1 4 3 -2 6 -13 5 -11 0 -14 -3 -6 -6z" />
    <path d="M2980 3456 c0 -2 7 -7 16 -10 8 -3 12 -2 9 4 -6 10 -25 14 -25 6z" />
    <path d="M3663 3019 c-18 -27 -33 -54 -33 -59 0 -6 -6 -8 -12 -4 -7 4 -2 -5
11 -19 29 -32 28 -31 28 -12 0 8 -4 12 -8 9 -16 -9 -17 13 -2 44 8 17 20 29
26 25 6 -3 7 -1 3 5 -4 7 -3 12 2 12 8 0 25 41 19 46 -1 1 -17 -21 -34 -47z" />
    <path d="M3655 2969 c-4 -6 -5 -12 -2 -15 2 -3 7 2 10 11 7 17 1 20 -8 4z" />
    <path d="M3590 2936 c0 -2 7 -7 16 -10 8 -3 12 -2 9 4 -6 10 -25 14 -25 6z" />
    <path d="M3569 2891 c-18 -14 -21 -23 -13 -31 8 -8 15 -6 25 6 9 12 10 15 2
10 -19 -11 -15 5 5 20 9 7 14 14 11 14 -4 0 -17 -9 -30 -19z" />
    <path d="M1815 2996 c-29 -43 0 -96 53 -96 44 0 69 71 36 104 -24 25 -71 20
-89 -8z" />
    <path d="M2227 3002 c-22 -24 -21 -65 1 -85 40 -36 102 -9 102 45 0 51 -69 78
-103 40z" />
    <path d="M2732 2144 c-12 -8 -22 -26 -22 -39 0 -24 33 -55 57 -55 18 0 53 37
53 55 0 18 -35 55 -53 55 -7 0 -23 -7 -35 -16z" />
    <path d="M3091 2143 c-18 -15 -21 -24 -15 -47 3 -15 17 -33 31 -39 19 -8 29
-7 51 10 32 24 37 42 20 65 -21 27 -61 32 -87 11z" />
    <path d="M2905 1988 c-28 -16 -35 -28 -35 -62 0 -19 10 -40 27 -58 l27 -28
-21 -28 c-14 -19 -32 -29 -58 -32 -43 -6 -56 -24 -27 -39 22 -12 76 0 107 23
18 13 24 12 52 -5 38 -24 108 -23 108 1 0 10 -13 17 -40 20 -29 4 -43 12 -54
31 -13 23 -12 28 7 55 36 50 33 98 -8 119 -34 18 -58 19 -85 3z m81 -30 c6
-10 -20 -38 -36 -38 -3 0 -14 6 -25 13 -24 18 -11 37 25 37 16 0 32 -5 36 -12z" />
  </g>
</svg>